<svg xmlns="http://www.w3.org/2000/svg" viewBox="0 0 180.459 180.375"><path d="M90.568 11.807c43.302 0 78.53 35.23 78.53 78.53 0 43.303-35.228 78.533-78.53 78.533s-78.53-35.23-78.53-78.533c0-43.302 35.23-78.53 78.53-78.53m0-6c-46.686 0-84.53 37.844-84.53 84.53 0 46.685 37.845 84.533 84.53 84.533s84.53-37.85 84.53-84.533c0-46.687-37.845-84.53-84.53-84.53z"/><path d="M68.947 163.167c-.312 0-.627-.05-.935-.15-1.224-.4-2.055-1.54-2.064-2.828l-.223-31.016c-.004-.648.2-1.28.585-1.802L87.945 98.03l.006-7.815-42.69 57.65c-.987 1.332-2.865 1.612-4.197.626-1.332-.985-1.612-2.864-.626-4.195L87.96 80.123l.02-29.27c0-.636.205-1.256.58-1.77l21.597-29.494c.766-1.044 2.113-1.48 3.343-1.084 1.23.397 2.068 1.54 2.078 2.833l.22 30.26c.006.65-.2 1.286-.588 1.808L93.957 82.105l-.006 7.78 41.898-56.826c.985-1.336 2.862-1.617 4.195-.635 1.334.983 1.617 2.86.635 4.195l-46.735 63.385-.022 30.737c0 .646-.21 1.275-.596 1.793L71.35 161.962c-.576.772-1.474 1.205-2.403 1.205zm2.785-33.038l.15 21.09 16.04-21.477.015-21.593-16.205 21.98zM93.98 51.836l-.017 20.175 15.826-21.37-.148-20.197L93.98 51.837z"/></svg>